# xmcd CD database file
#
# Track frame offsets:
#	150
#	14500
#	26500
#	42378
#	55105
#	66243
#	76035
#	88615
#	104298
#	113980
#	129190
#	142923
#
# Disc length: 2045 seconds
#
# Revision: 3
# Processed by: cddbd v1.5.2PL0 Copyright (c) Steve Scherf et al.
# Submitted via: CDex 1.51
#
DISCID=9307fb0c
DTITLE=Sonny Boy Williamson II - More Real Folk Blues
DYEAR=1967
DGENRE=Blues
TTITLE0=Help Me
TTITLE1=Bye Bye Bird
TTITLE2=Nine Below Zero
TTITLE3=The Hunt
TTITLE4=Stop Right Now
TTITLE5=She's My Baby
TTITLE6=The Goat
TTITLE7=Decoration Day
TTITLE8=Trying To Get Back On My Feet
TTITLE9=My Younger Days
TTITLE10=(I Want You) Close To Me
TTITLE11=Somebody Help Me
EXTD=CHD 9277\n\nSubmitted 7/23/97\n[Jmccoy@efn.org] YEAR: 1967
EXTT0=
EXTT1=
EXTT2=
EXTT3=
EXTT4=
EXTT5=
EXTT6=
EXTT7=
EXTT8=
EXTT9=
EXTT10=
EXTT11=
PLAYORDER=
